<svg width="26" height="26" viewBox="0 0 26 26" fill="none" xmlns="http://www.w3.org/2000/svg">
<path d="M9.25 25.5H16.75C23 25.5 25.5 23 25.5 16.75V9.25C25.5 3 23 0.5 16.75 0.5H9.25C3 0.5 0.5 3 0.5 9.25V16.75C0.5 23 3 25.5 9.25 25.5Z" fill="#5030E5" fill-opacity="0.2"/>
<path d="M14.9933 17.3167H16C18.3828 17.3167 20.3167 15.3829 20.3167 13C20.3167 10.6172 18.3828 8.68334 16 8.68334H15C14.6359 8.68334 14.35 8.97847 14.35 9.33334C14.35 9.68952 14.6438 9.98334 15 9.98334H16C17.6638 9.98334 19.0167 11.3362 19.0167 13C19.0167 14.6638 17.6638 16.0167 16 16.0167H14.9933C14.6372 16.0167 14.3433 16.3105 14.3433 16.6667C14.3433 17.0229 14.6372 17.3167 14.9933 17.3167Z" fill="#5030E5" stroke="#5030E5" stroke-width="0.3"/>
<path d="M10 17.3167H11C11.3562 17.3167 11.65 17.0229 11.65 16.6667C11.65 16.3105 11.3562 16.0167 11 16.0167H10C8.33618 16.0167 6.98334 14.6638 6.98334 13C6.98334 11.3362 8.33618 9.98334 10 9.98334H11C11.3562 9.98334 11.65 9.68952 11.65 9.33334C11.65 8.97717 11.3562 8.68334 11 8.68334H10C7.61716 8.68334 5.68334 10.6172 5.68334 13C5.68334 15.3829 7.61716 17.3167 10 17.3167Z" fill="#5030E5" stroke="#5030E5" stroke-width="0.3"/>
</svg>
