<svg width="26" height="26" viewBox="0 0 26 26" fill="none" xmlns="http://www.w3.org/2000/svg">
<path d="M9.25 25.5H16.75C23 25.5 25.5 23 25.5 16.75V9.25C25.5 3 23 0.5 16.75 0.5H9.25C3 0.5 0.5 3 0.5 9.25V16.75C0.5 23 3 25.5 9.25 25.5Z" fill="#5030E5" fill-opacity="0.2"/>
<path d="M14.1375 7.80001L7.64998 14.2875C7.39998 14.5375 7.16249 15.025 7.11249 15.375L6.76249 17.85C6.63749 18.75 7.26249 19.375 8.16249 19.25L10.6375 18.9C10.9875 18.85 11.475 18.6125 11.725 18.3625L18.2125 11.875C19.325 10.7625 19.8625 9.46251 18.2125 7.81251C16.5625 6.15001 15.2625 6.67501 14.1375 7.80001Z" stroke="#5030E5" stroke-width="1.5" stroke-miterlimit="10" stroke-linecap="round" stroke-linejoin="round"/>
</svg>
